<?xml version="1.0" encoding="UTF-8"?>
<svg version="1.1" viewBox="0 0 1600 1600" width="1280" height="1280" xmlns="http://www.w3.org/2000/svg">
<path transform="translate(0)" d="m0 0h1600v1600h-1600z" fill="#FDFFFD"/>
<path transform="translate(770,696)" d="m0 0h82l18 3 17 7 12 9 12 12 9-7 16-10 17-8 15-4 11-2h18l17 4 12 5 11 7 11 10 9 14 5 12 4 17v24l-4 24-14 77-1 6-3 1h-48l-1-3 7-36 7-41 3-15v-22l-4-11-6-9-9-7-11-4h-13l-14 5-11 7-5 4-9 12-5 11-8 42-10 56-2 9-3 2h-48l-1-3 5-24 9-50 4-24v-11l-3-12-5-10-7-7-11-6-14-2h-33l-7 2-3 6-9 49-16 91-2 1h-44l-5-1 1-11 8-44 16-91 5-26 4-11 6-8 9-6z" fill="#1680FD"/>
<path transform="translate(391,696)" d="m0 0h77l9 4 8 6 6 7 4 9v16l-11 60-16 90-2 8-3 1h-46l-2-1 1-9 3-13-6 4-7 6-14 8-11 4-6 1h-20l-15-3-13-5-12-7-11-9-9-11-6-11-4-9-4-18v-23l4-17 8-20 10-16 9-11 11-11 14-10 13-8 15-6 19-5z" fill="#1680FD"/>
<path transform="translate(525,696)" d="m0 0h51l-2 14-15 83-1 8v10l3 12 6 9 7 4 9 2h10l17-4 12-5 10-7 7-6 9-14 5-12 4-18 13-69 2-6 1-1h51l-3 17-16 88-11 61-6 26-7 19-9 17-10 14-14 14-14 9-12 6-16 5-22 4h-15l-22-3-16-4-1-4 6-42 1-5 11 2 22 3h13l16-3 10-4 11-7 8-9 6-13 4-16-5 3-8 8-11 7-13 5-8 2h-22l-18-4-16-8-9-7-8-8-7-11-7-19-2-11v-24l3-19 12-65 5-23z" fill="#1680FD"/>
<path transform="translate(1198,698)" d="m0 0 17 1 15 3 14 5 11 6 10 8 8 8 9 14 6 15 3 15v17l-5 21-7 17-9 14-9 11-11 11-15 11-17 9-19 7-20 4h-18l-20-4-13-5-11-6-9-7-8-8-9-14-6-14-3-13v-24l4-17 7-16 6-11 9-12 10-11 11-9 15-10 17-8 20-6z" fill="#1680FD"/>
<path transform="translate(84,696)" d="m0 0h17l-2 13-7 38-18 99h123l-1 8-6 15-8 11-11 8-13 6-16 3-70 1h-6l-2 7-7 36-6 31-1 1h-50v-11l4-16 15-83 20-113 4-19 4-11 7-9 8-7 12-6z" fill="#1680FD"/>
<path transform="translate(1372,620)" d="m0 0h19l-1 9-17 95-20 112-1 9 121 1-1 9-5 13-6 9-9 8-10 6-16 5-8 1h-127v-7l9-49 18-101 15-84 5-12 6-9 8-7 12-6z" fill="#1680FD"/>
<path transform="translate(146,696)" d="m0 0h94l11 3 9 5 7 8 4 9 1 4v13l-11 72-3 14-5 12-8 11-10 9-15 8-17 6h-4l2-14 12-67 4-24v-11l-2-4-6-2h-80l-31-1 1-9 6-16 7-9 9-8 13-6z" fill="#1680FD"/>
<path transform="translate(1422,696)" d="m0 0h95l13 4 8 6 6 7 4 10v16l-10 67-4 19-8 16-9 10-9 7-14 7-15 5h-4l5-28 12-68 2-11v-9l-4-5-20-1h-78l-17-1v-7l5-15 6-9 5-5 7-6 10-5z" fill="#1680FD"/>
<path transform="translate(389,747)" d="m0 0h33l9 2 7 8v14l-4 23-5 17-7 11-9 10-14 9-16 5h-17l-11-3-6-3-10-9-5-11-1-4v-19l4-14 7-12 12-12 12-7 12-4z" fill="#FDFFFD"/>
<path transform="translate(1188,748)" d="m0 0h12l16 4 11 7 7 9 4 11v15l-3 12-8 14-9 10-11 8-12 5-10 2h-16l-15-5-6-4-5-5-4-5-4-10-1-12 2-13 5-12 6-8 11-11 12-7 12-4z" fill="#FDFFFD"/>
<path transform="translate(1596,867)" d="m0 0h4v10l-2 6-2 13-4 1-1-3 2-16-6 9-4 8-4 1-2-7-2-13h-1l-2 19-1 1h-5l2-15 2-12 1-1h6l2 4 1 15 3-2 6-11 4-6z" fill="#1680FD"/>
<path transform="translate(1546,867)" d="m0 0h19v4l-8 2-4 23h-5l1-8 3-17h-8z" fill="#1680FD"/>
</svg>
