<svg id="Layer_1" data-name="Layer 1" xmlns="http://www.w3.org/2000/svg" viewBox="0 0 96.17 122.88"><title>terms-and-conditions</title><path d="M62.74,110.31,84.22,87.73H62.74v22.58ZM22.57,45.94V26H16V19.86H35.94V26H29.38v20Zm48.59.21a13.82,13.82,0,0,1-4-.53,6.52,6.52,0,0,1-3-1.93,9.48,9.48,0,0,1-1.93-4,29.06,29.06,0,0,1-.66-6.85,26.2,26.2,0,0,1,.7-6.67,9.71,9.71,0,0,1,2-4,6.71,6.71,0,0,1,3-2,13,13,0,0,1,3.86-.54,27.32,27.32,0,0,1,3.84.23,23,23,0,0,1,2.84.54,12.74,12.74,0,0,1,1.88.63v5.3c-.44-.09-1-.19-1.72-.28s-1.5-.17-2.4-.23-1.88-.09-2.93-.09a7.27,7.27,0,0,0-2,.25,2.35,2.35,0,0,0-1.32,1,5.6,5.6,0,0,0-.72,2.16,25.12,25.12,0,0,0-.23,3.77,28.25,28.25,0,0,0,.18,3.51,6.08,6.08,0,0,0,.63,2.2,2.55,2.55,0,0,0,1.32,1.12,6.28,6.28,0,0,0,2.23.33c1.77,0,3.22,0,4.33-.09s2-.13,2.65-.22V45a12.35,12.35,0,0,1-2,.59,24.09,24.09,0,0,1-2.76.39c-1,.09-2.3.14-3.75.14Zm-25.11.19a10.57,10.57,0,0,1-4.72-1,7.29,7.29,0,0,1-3-2.6,6.46,6.46,0,0,1-1.06-3.6,5.58,5.58,0,0,1,.55-2.54,6.92,6.92,0,0,1,1.53-2,17.25,17.25,0,0,1,2.3-1.82l5.79-3.59a3.23,3.23,0,0,0,1.18-1.14A2.32,2.32,0,0,0,48.89,27a1.57,1.57,0,0,0-.44-1.08,1.81,1.81,0,0,0-1.4-.46,2.25,2.25,0,0,0-1,.21,1.6,1.6,0,0,0-.65.61,1.7,1.7,0,0,0-.24.92,3,3,0,0,0,.43,1.5C47.89,32.94,57.14,42,60.76,45.94H53.88L43.51,35c-.51-.54-1.07-1.2-1.69-2a12.63,12.63,0,0,1-1.58-2.66,7.69,7.69,0,0,1-.67-3.23,7,7,0,0,1,.93-3.55A7.1,7.1,0,0,1,43.12,21a7.92,7.92,0,0,1,3.93-1,7.33,7.33,0,0,1,3.69.89,6.38,6.38,0,0,1,2.4,2.35A6.45,6.45,0,0,1,54,26.5a6.57,6.57,0,0,1-.88,3.32,8.68,8.68,0,0,1-2.51,2.71c-1.51,1.06-5.32,3.42-6.34,4.71a2.15,2.15,0,0,0-.44,1.42,2.2,2.2,0,0,0,.34,1.24,2.12,2.12,0,0,0,1,.78,3.57,3.57,0,0,0,1.45.27,5.63,5.63,0,0,0,2.54-.62,7.73,7.73,0,0,0,2.34-1.73,8.54,8.54,0,0,0,2.35-6h5.43a19.27,19.27,0,0,1-.46,4.27,12.73,12.73,0,0,1-1.48,3.77,9.58,9.58,0,0,1-2.69,2.88l-1,.49-1,.5a10.38,10.38,0,0,1-3.2,1.39,13.9,13.9,0,0,1-3.28.41ZM18.93,90H38.16v5.53H18.93V90Zm0-14H46.22v5.53H18.93V76Zm0-14h58.3v5.53H18.93V61.94ZM96.17,84.85a3.58,3.58,0,0,1-2.61,3.45L61.93,121.56a3.55,3.55,0,0,1-2.76,1.32H6.43A6.42,6.42,0,0,1,0,116.45V6.43A6.42,6.42,0,0,1,6.43,0H89.74a6.44,6.44,0,0,1,6.43,6.43V84.85ZM89,80.55V7.18H7.18V115.73H55.56V84.16a3.61,3.61,0,0,1,3.61-3.61Z"/></svg>